<svg preserveAspectRatio="none" overflow="visible" style="display: block;" width="40" height="40" viewBox="0 0 40 40" fill="none" xmlns="http://www.w3.org/2000/svg">
<g id="Frame 7">
<rect x="1" y="1" width="38" height="38" rx="19" stroke="#313131" stroke-width="2"/>
<path id="Arrow 1" d="M13.6325 19.3014C13.242 19.692 13.242 20.3251 13.6325 20.7156L19.9965 27.0796C20.387 27.4701 21.0202 27.4701 21.4107 27.0796C21.8012 26.6891 21.8012 26.0559 21.4107 25.6654L15.7538 20.0085L21.4107 14.3517C21.8012 13.9612 21.8012 13.328 21.4107 12.9375C21.0202 12.5469 20.387 12.5469 19.9965 12.9375L13.6325 19.3014ZM25.6533 20.0085L25.6533 19.0085L14.3396 19.0085L14.3396 20.0085L14.3396 21.0085L25.6533 21.0085L25.6533 20.0085Z" fill="#313131"/>
</g>
</svg>
