<svg width="24" height="16" viewBox="0 0 24 16" fill="none" xmlns="http://www.w3.org/2000/svg">
<path d="M1.33334 16C0.95556 16 0.639116 15.872 0.384005 15.616C0.128894 15.36 0.000893487 15.0435 4.5977e-06 14.6667C-0.000884291 14.2898 0.127116 13.9733 0.384005 13.7173C0.640894 13.4613 0.957338 13.3333 1.33334 13.3333H22.6667C23.0445 13.3333 23.3613 13.4613 23.6173 13.7173C23.8733 13.9733 24.0009 14.2898 24 14.6667C23.9991 15.0435 23.8711 15.3604 23.616 15.6173C23.3609 15.8742 23.0445 16.0018 22.6667 16H1.33334ZM1.33334 9.33332C0.95556 9.33332 0.639116 9.20532 0.384005 8.94932C0.128894 8.69332 0.000893487 8.37688 4.5977e-06 7.99999C-0.000884291 7.6231 0.127116 7.30666 0.384005 7.05066C0.640894 6.79466 0.957338 6.66666 1.33334 6.66666H22.6667C23.0445 6.66666 23.3613 6.79466 23.6173 7.05066C23.8733 7.30666 24.0009 7.6231 24 7.99999C23.9991 8.37688 23.8711 8.69377 23.616 8.95066C23.3609 9.20755 23.0445 9.3351 22.6667 9.33332H1.33334ZM1.33334 2.66666C0.95556 2.66666 0.639116 2.53866 0.384005 2.28266C0.128894 2.02666 0.000893487 1.71021 4.5977e-06 1.33332C-0.000884291 0.956435 0.127116 0.639991 0.384005 0.383991C0.640894 0.127991 0.957338 -9.53674e-06 1.33334 -9.53674e-06H22.6667C23.0445 -9.53674e-06 23.3613 0.127991 23.6173 0.383991C23.8733 0.639991 24.0009 0.956435 24 1.33332C23.9991 1.71021 23.8711 2.0271 23.616 2.28399C23.3609 2.54088 23.0445 2.66843 22.6667 2.66666H1.33334Z" fill="#121319"/>
</svg>
