<?xml version="1.0" encoding="UTF-8" ?>
<!DOCTYPE svg PUBLIC "-//W3C//DTD SVG 1.1//EN" "http://www.w3.org/Graphics/SVG/1.1/DTD/svg11.dtd">
<svg width="1080pt" height="1080pt" viewBox="0 0 1080 1080" version="1.1" xmlns="http://www.w3.org/2000/svg">
<g id="#f8f8f8ff">
</g>
<g id="#191919ff">
<path fill="#191919" opacity="1.00" d=" M 737.60 266.56 C 757.39 259.26 779.08 260.51 799.65 263.17 C 836.81 268.61 872.74 280.46 907.42 294.61 C 915.97 298.17 924.44 301.92 932.76 306.02 C 930.06 315.38 927.14 324.69 924.43 334.05 C 888.29 321.91 851.17 311.96 813.18 307.98 C 795.16 306.53 776.03 305.58 759.14 313.17 C 743.92 319.84 730.94 331.70 723.45 346.58 C 713.44 365.98 712.62 389.25 718.90 409.95 C 724.61 429.49 736.60 446.63 751.26 460.55 C 730.54 467.86 710.03 475.77 689.32 483.09 C 667.06 457.88 653.31 424.84 653.25 391.03 C 653.10 374.48 656.23 357.95 662.17 342.51 C 655.35 344.19 648.37 343.08 641.48 342.82 C 607.92 340.98 574.36 339.07 540.80 337.32 C 545.36 402.55 549.82 467.78 553.50 533.07 C 537.39 538.98 521.30 544.95 505.21 550.91 C 504.72 478.83 504.50 406.72 507.95 334.71 C 468.15 332.00 428.30 329.93 388.47 327.72 C 386.25 317.46 383.78 307.26 381.55 297.00 C 463.72 292.30 545.86 287.13 628.04 282.75 C 634.78 282.59 641.62 281.23 648.28 282.88 C 662.63 285.85 675.36 296.22 680.60 309.99 C 695.58 291.05 715.38 275.97 737.60 266.56 Z" />
<path fill="#191919" opacity="1.00" d=" M 157.67 299.99 C 216.11 301.30 274.57 300.10 333.01 301.36 C 333.87 312.58 334.47 323.82 335.16 335.05 C 316.06 343.03 296.33 349.86 275.85 353.24 C 280.84 446.76 278.19 540.44 278.24 634.04 C 264.66 639.27 251.05 644.43 237.53 649.80 C 237.05 550.91 232.81 452.08 230.94 353.21 C 207.89 348.59 184.85 343.93 161.82 339.21 C 160.46 326.13 159.01 313.07 157.67 299.99 Z" />
<path fill="#191919" opacity="1.00" d=" M 1017.38 372.63 C 1022.29 371.41 1028.00 370.62 1032.49 373.55 C 1034.29 374.80 1036.26 376.62 1036.12 379.03 C 1035.70 382.78 1034.41 387.00 1030.86 388.91 C 1022.49 393.68 1013.38 396.96 1004.41 400.38 C 975.48 411.10 946.24 420.94 917.10 431.05 C 885.61 442.43 854.23 454.11 822.91 465.97 C 745.18 494.66 667.30 522.96 589.56 551.64 C 490.03 588.41 390.50 625.19 290.99 662.03 C 236.27 681.77 181.51 701.43 126.49 720.33 C 104.89 727.17 83.55 734.88 61.72 740.97 C 58.44 741.80 55.22 743.18 51.81 743.28 C 51.70 742.72 51.49 741.60 51.38 741.05 C 54.31 738.54 57.95 737.08 61.33 735.30 C 80.91 725.33 101.46 717.50 121.53 708.63 C 140.10 700.54 158.98 693.21 177.87 685.89 C 213.85 671.78 249.93 657.89 286.02 644.06 C 427.80 592.24 569.52 540.30 711.17 488.15 C 751.63 473.37 792.07 458.52 832.41 443.43 C 863.11 431.89 893.91 420.63 924.33 408.39 C 950.99 397.44 977.91 387.14 1004.82 376.82 C 1008.96 375.30 1013.12 373.80 1017.38 372.63 M 955.01 402.07 C 947.90 405.20 940.18 407.30 933.85 411.94 C 932.01 413.96 934.12 416.15 935.18 417.93 C 942.47 417.58 949.16 414.33 956.03 412.16 C 975.86 404.91 995.66 397.52 1014.96 388.94 C 1016.48 387.98 1018.88 387.33 1018.70 385.08 C 1017.98 383.12 1016.39 380.73 1013.98 381.75 C 993.92 387.27 974.25 394.17 955.01 402.07 Z" />
<path fill="#191919" opacity="1.00" d=" M 703.34 525.00 C 724.82 516.94 746.35 508.97 767.97 501.30 C 782.43 510.64 798.41 517.52 815.02 522.00 C 843.47 528.32 869.55 543.43 890.70 563.29 C 922.84 593.65 944.22 635.19 950.31 678.97 C 953.42 702.05 952.09 726.04 944.15 748.07 C 937.72 766.08 926.50 782.51 911.43 794.38 C 897.37 805.35 880.59 813.13 862.86 815.62 C 841.04 818.81 818.84 817.75 796.99 815.40 C 768.97 812.15 741.20 806.41 714.32 797.80 C 697.15 792.09 679.87 785.61 665.12 774.89 C 668.37 762.25 671.63 749.62 674.94 737.00 C 705.74 753.07 739.24 764.83 773.98 768.03 C 804.85 770.94 836.94 766.20 864.46 751.48 C 877.60 744.17 886.24 730.46 889.20 715.92 C 893.56 695.35 889.74 673.89 882.50 654.43 C 872.20 627.46 854.55 602.82 830.63 586.34 C 820.21 579.19 808.51 573.87 796.19 571.02 C 762.34 563.03 729.32 548.51 703.34 525.00 Z" />
<path fill="#191919" opacity="1.00" d=" M 505.78 597.75 C 521.95 591.41 538.35 585.61 554.67 579.66 C 558.89 654.02 562.77 728.41 565.94 802.83 C 564.08 811.65 558.30 820.48 549.42 823.48 C 542.10 825.97 534.00 824.18 527.37 820.58 C 516.71 814.77 508.49 804.57 505.13 792.90 C 504.15 789.69 504.63 786.31 504.65 783.02 C 506.25 724.03 505.88 665.01 505.41 606.00 C 505.57 603.27 504.85 600.34 505.78 597.75 Z" />
<path fill="#191919" opacity="1.00" d=" M 269.95 684.66 C 272.63 683.68 275.44 683.18 278.26 682.85 C 278.58 709.95 278.90 737.06 280.03 764.14 C 304.58 769.01 328.68 776.06 353.37 780.28 C 355.21 792.19 357.09 804.10 358.94 816.01 C 292.55 814.66 226.15 816.01 159.75 815.98 C 161.58 804.78 163.48 793.58 165.32 782.38 C 189.55 778.11 211.71 765.11 236.61 764.09 C 237.18 741.49 237.50 718.87 237.55 696.26 C 248.34 692.37 259.11 688.42 269.95 684.66 Z" />
</g>
</svg>
