<svg width="306" height="259" viewBox="0 0 306 259" fill="none" xmlns="http://www.w3.org/2000/svg">
<path d="M5.59386 257.523C5.88281 258.3 6.74646 258.695 7.52285 258.406L20.1749 253.697C20.9514 253.408 21.3465 252.544 21.0575 251.768C20.7686 250.991 19.9049 250.596 19.1285 250.885L7.8822 255.071L3.69647 243.825C3.40752 243.048 2.54387 242.653 1.76746 242.942C0.99107 243.231 0.595935 244.095 0.884889 244.871L5.59386 257.523ZM299.968 2.53056L300.181 4.01532C301.271 3.85877 302.071 3.7584 302.613 3.71171C302.888 3.68806 303.061 3.68144 303.157 3.68294C303.206 3.6837 303.203 3.68627 303.166 3.68067C303.164 3.6804 302.968 3.65697 302.737 3.51702C302.608 3.43853 302.403 3.28467 302.246 3.01491C302.074 2.71982 302.02 2.38775 302.063 2.08036C302.135 1.57634 302.443 1.3032 302.462 1.28493C302.567 1.18497 302.618 1.17861 302.444 1.26827C302.164 1.41243 301.651 1.63279 300.861 1.94331C299.301 2.55582 296.904 3.42743 293.719 4.60179C290.546 5.7718 286.621 7.23156 282.045 9.0073C263.741 16.1107 235.029 28.2658 202.185 47.2103C136.507 85.0929 54.2275 150.171 5.63562 256.376L6.99963 257L8.36365 257.624C56.6078 152.179 138.328 87.5061 203.684 49.809C236.356 30.9638 264.919 18.8716 283.131 11.8041C287.684 10.0371 291.591 8.58389 294.757 7.41653C297.911 6.25354 300.359 5.36339 301.957 4.73559C302.746 4.42595 303.389 4.15653 303.819 3.93448C304 3.84105 304.294 3.68248 304.528 3.46037C304.612 3.38102 304.955 3.05432 305.033 2.50414C305.08 2.17368 305.022 1.82038 304.839 1.50591C304.67 1.21675 304.447 1.04534 304.292 0.951134C304.009 0.779737 303.731 0.73216 303.618 0.714942C303.47 0.692386 303.326 0.6852 303.204 0.683301C302.958 0.67947 302.668 0.695877 302.356 0.722767C301.724 0.777166 300.854 0.887925 299.754 1.04579L299.968 2.53056Z" fill="#440A18"/>
</svg>
