<svg width="337" height="270" viewBox="0 0 337 270" fill="none" xmlns="http://www.w3.org/2000/svg">
<path d="M0.806663 262.945C0.0796496 262.548 -0.18781 261.637 0.209316 260.91L6.68091 249.062C7.07803 248.335 7.98937 248.068 8.71638 248.465C9.44342 248.862 9.71088 249.773 9.31373 250.5L3.56122 261.032L14.0925 266.784C14.8196 267.181 15.087 268.093 14.6899 268.82C14.2928 269.547 13.3814 269.814 12.6544 269.417L0.806663 262.945ZM335.264 0.612549C336.727 0.941716 336.727 0.943454 336.726 0.945857C336.726 0.947545 336.725 0.950613 336.724 0.953986C336.723 0.960733 336.721 0.970131 336.718 0.982165C336.712 1.00623 336.704 1.04084 336.694 1.08587C336.672 1.17592 336.64 1.30765 336.597 1.48004C336.511 1.82482 336.38 2.33226 336.196 2.99435C335.83 4.31851 335.257 6.26127 334.424 8.75836C332.758 13.7525 330.053 20.9643 325.885 29.8793C317.55 47.7101 303.368 72.3523 279.959 99.6903C233.13 154.379 149.439 219.784 1.94812 263.068L1.52574 261.629L1.10336 260.19C148.078 217.057 231.256 151.955 277.68 97.7391C300.897 70.625 314.937 46.2162 323.167 28.6089C327.283 19.8049 329.946 12.7009 331.578 7.809C332.394 5.36309 332.952 3.47028 333.305 2.19463C333.481 1.55681 333.607 1.07328 333.687 0.752069C333.727 0.591462 333.756 0.471434 333.775 0.392985C333.784 0.353761 333.791 0.324932 333.795 0.306623C333.797 0.297468 333.799 0.290944 333.799 0.287065C333.8 0.285125 333.8 0.284206 333.8 0.283233C333.8 0.282976 333.8 0.283382 335.264 0.612549Z" fill="#440A18"/>
</svg>
