<svg width="471" height="160" viewBox="0 0 471 160" fill="none" xmlns="http://www.w3.org/2000/svg">
<path d="M470.027 150.093C470.631 149.526 470.661 148.577 470.094 147.973L460.853 138.131C460.286 137.527 459.337 137.497 458.733 138.064C458.129 138.631 458.099 139.581 458.666 140.184L466.88 148.933L458.131 157.147C457.527 157.714 457.497 158.663 458.064 159.267C458.631 159.871 459.581 159.901 460.185 159.334L470.027 150.093ZM1.36279 1.01343C0.032082 1.70568 0.0331194 1.70767 0.0344292 1.71017C0.0352259 1.7117 0.0368097 1.71472 0.0384093 1.71776C0.0416096 1.72385 0.0459062 1.73199 0.0513145 1.74216C0.0621312 1.76251 0.0773943 1.791 0.0972263 1.82752C0.13689 1.90056 0.194829 2.00568 0.272022 2.14191C0.426408 2.41436 0.657802 2.8112 0.974035 3.32453C1.60651 4.35121 2.57827 5.84371 3.95193 7.7388C6.6994 11.5292 11.0537 16.9288 17.5151 23.4321C30.4393 36.44 51.7838 53.8535 85.5439 71.6366C153.06 107.201 270.208 144.231 468.953 150.499L469 149L469.047 147.501C270.623 141.243 153.952 104.28 86.942 68.9823C53.4389 51.3346 32.3433 34.1 19.6433 21.3176C13.2925 14.9258 9.03863 9.64467 6.38094 5.97813C5.05201 4.14476 4.12196 2.71474 3.52826 1.75101C3.2314 1.26914 3.01862 0.903812 2.8821 0.662892C2.81384 0.542431 2.76465 0.45307 2.73354 0.395791C2.71799 0.367151 2.70695 0.346532 2.70032 0.334055C2.69701 0.327817 2.69479 0.323615 2.69366 0.321464C2.69309 0.320388 2.69306 0.320317 2.69277 0.319777C2.693 0.32022 2.6935 0.321179 1.36279 1.01343Z" fill="#440A18"/>
</svg>
