<svg width="429" height="165" viewBox="0 0 429 165" fill="none" xmlns="http://www.w3.org/2000/svg">
<path d="M427.87 154.042C428.445 153.446 428.429 152.497 427.833 151.921L418.124 142.541C417.528 141.966 416.579 141.982 416.003 142.578C415.427 143.174 415.444 144.123 416.039 144.699L424.67 153.037L416.332 161.667C415.756 162.263 415.773 163.212 416.369 163.788C416.964 164.364 417.914 164.347 418.49 163.751L427.87 154.042ZM1.5 1L0.375243 1.99243C30.2968 35.9036 58.6526 75.5264 118.705 105.861C178.743 136.188 270.341 157.198 426.817 154.5L426.791 153L426.765 151.5C270.536 154.194 179.488 133.203 120.057 103.183C60.6402 73.1694 32.7032 34.0964 2.62476 0.00756758L1.5 1Z" fill="#440A18"/>
</svg>
